<svg width="81" height="80" viewBox="0 0 81 80" fill="none" xmlns="http://www.w3.org/2000/svg">
<g clip-path="url(#clip0_1139_6892)">
<path d="M40.2714 0.457123C62.2366 0.457123 80.0429 18.2634 80.0429 40.2285C80.0429 62.1937 62.2366 80 40.2714 80C18.3063 80 0.5 62.1937 0.5 40.2285C0.5 18.2634 18.3063 0.457123 40.2714 0.457123Z" fill="#2BD7B0"/>
<path d="M40.2714 0.457123C62.2366 0.457123 80.0429 18.2634 80.0429 40.2285C80.0429 62.1937 62.2366 80 40.2714 80C18.3063 80 0.5 62.1937 0.5 40.2285C0.5 18.2634 18.3063 0.457123 40.2714 0.457123Z" fill="#2BD7B0"/>
<path d="M61.2429 42.5714C60.6143 44.4 59.7 46.1143 58.5571 47.7714C57.4714 49.3143 56.2143 50.7429 54.7286 52C53.3 53.2 51.7571 54.1714 50.0428 54.9714C48.4428 55.7143 46.6714 56.2857 44.9 56.5714C43.1857 56.8572 41.4143 56.9714 39.6428 56.8C37.9857 56.6286 36.2714 56.2857 34.6714 55.6572C33.1286 55.0857 31.6428 54.2857 30.2714 53.3143C28.9571 52.4 27.7571 51.2571 26.7286 50C25.7571 48.8 24.9 47.4857 24.2714 46C23.6428 44.6286 23.1857 43.1429 22.9571 41.6571C22.7286 40.2286 22.6714 38.7429 22.8428 37.2571C23.0143 35.8857 23.3 34.4571 23.8714 33.0857C24.3857 31.8286 25.0143 30.6286 25.8714 29.4857C26.6714 28.4571 27.5857 27.4857 28.6143 26.6286C29.5857 25.8286 30.7286 25.2 31.9286 24.6857C33.0143 24.2286 34.2714 23.8857 35.4714 23.7143C36.6143 23.5429 37.8143 23.5429 39.0143 23.7143C40.1 23.8286 41.2428 24.1714 42.3286 24.5714C43.3 24.9714 44.2714 25.5429 45.1286 26.2286C45.9286 26.8572 46.6714 27.6 47.3 28.4571C47.8714 29.2 48.3857 30.1143 48.7286 31.0286C49.0714 31.8857 49.3 32.8 49.4143 33.7714C49.5286 34.6286 49.4714 35.5429 49.3571 36.4571C49.2429 37.2571 48.9571 38.1143 48.6143 38.9143C48.2143 39.6 47.8143 40.2857 47.3 40.9143C46.8428 41.4857 46.2714 42 45.6428 42.4571C45.0714 42.8 44.3857 43.1429 43.7 43.3714C43.1286 43.6 42.4429 43.7143 41.8143 43.7714C41.6429 43.7714 41.4143 43.7714 41.2429 43.7714V50.3429C41.5857 50.3429 41.9286 50.3429 42.2714 50.3429C43.5286 50.2857 44.7857 50 45.9286 49.6C47.1286 49.1429 48.3286 48.5714 49.3571 47.8286C50.4428 47.0286 51.4714 46.1143 52.3286 45.0857C53.2428 44 53.9857 42.8 54.5571 41.5429C55.1286 40.2286 55.5857 38.8 55.8143 37.4286C56.0429 35.9429 56.1 34.4 55.9286 32.9714C55.7571 31.4286 55.3571 29.8857 54.8428 28.5143C54.2714 27.0286 53.4714 25.6 52.5 24.4C51.5286 23.0857 50.3286 21.9429 49.0714 20.9143C47.7 19.9429 46.2143 19.1429 44.6714 18.5143C43.0714 17.8286 41.4143 17.3714 39.7 17.2C37.9286 16.9714 36.1571 16.9714 34.4429 17.2572C32.6143 17.5429 30.8428 18 29.2428 18.7429C27.5286 19.4857 25.9286 20.4571 24.4429 21.6C22.9571 22.8 21.5857 24.1714 20.5 25.7143C19.3 27.3143 18.3857 29.0286 17.7 30.8572C16.9571 32.7429 16.5 34.6857 16.2714 36.6857C16.0428 38.7429 16.1 40.8 16.4428 42.8C16.7857 44.9143 17.4143 46.9143 18.2714 48.8C19.1857 50.8 20.3286 52.6286 21.6428 54.2286C23.0714 55.9429 24.6714 57.4286 26.4429 58.6857C28.2714 60 30.2714 61.0286 32.3857 61.8286C34.5571 62.6286 36.7857 63.1429 39.0714 63.3143C39.8714 63.3714 40.6714 63.4286 41.4714 63.4286C43.0143 63.4286 44.5571 63.3143 46.0428 63.0286C48.4428 62.6286 50.7286 61.8857 52.8428 60.8571C55.0714 59.8286 57.1286 58.5143 58.9571 56.9143C60.8429 55.3143 62.5571 53.4286 63.9286 51.4286C65.4143 49.3714 66.5571 47.0857 67.4143 44.7429C68.2714 42.2857 68.8429 39.7714 69.0143 37.2H62.3857C62.2143 39.0286 61.8143 40.8 61.2429 42.5714Z" fill="white"/>
</g>
<defs>
<clipPath id="clip0_1139_6892">
<rect width="80" height="80" fill="white" transform="translate(0.5)"/>
</clipPath>
</defs>
</svg>
